<?xml version="1.0" encoding="UTF-8" standalone="no"?>
<!DOCTYPE svg PUBLIC "-//W3C//DTD SVG 1.1//EN" "http://www.w3.org/Graphics/SVG/1.1/DTD/svg11.dtd">
<svg width="100%" height="100%" viewBox="0 0 350 349" version="1.1" xmlns="http://www.w3.org/2000/svg" xmlns:xlink="http://www.w3.org/1999/xlink" xml:space="preserve" xmlns:serif="http://www.serif.com/" style="fill-rule:evenodd;clip-rule:evenodd;stroke-linejoin:round;stroke-miterlimit:2;">
    <g transform="matrix(1,0,0,1,-173,-106)">
        <path d="M350,111.03C256.832,111.03 181.03,186.831 181.03,280C181.03,373.172 256.831,448.97 350,448.97C443.169,448.97 518.97,373.173 518.97,280C518.97,186.832 443.169,111.03 350,111.03ZM350,432.17C266.094,432.17 197.83,363.912 197.83,280C197.83,196.088 266.092,127.83 350,127.83C433.908,127.83 502.17,196.092 502.17,280C502.17,363.908 433.908,432.17 350,432.17Z" style="fill:white;fill-rule:nonzero;"/>
        <path d="M380.8,150.18L380.8,180.133L319.198,180.133L319.198,150.18C260.358,164.086 216.558,216.91 216.558,280C216.558,353.695 276.3,413.44 349.998,413.44C423.696,413.44 483.438,353.698 483.438,280C483.43,216.91 439.641,164.09 380.798,150.18L380.8,150.18ZM257.51,290.81L256.022,291.529L234.116,302.029L228.319,289.931L250.225,279.431L251.713,278.712L251.807,277.06C252.166,270.837 255.815,265.33 261.342,262.685C263.619,261.591 266.045,261.04 268.549,261.04C272.065,261.04 275.612,262.181 278.522,264.259L279.866,265.216L281.354,264.497L303.26,253.997L309.057,266.087L287.151,276.587L285.662,277.306L285.569,278.958C285.209,285.181 281.561,290.688 276.034,293.333C273.756,294.427 271.33,294.978 268.827,294.978C265.311,294.978 261.764,293.837 258.854,291.759L257.51,290.81ZM309.506,324.275C311.943,330.009 311.108,336.568 307.326,341.388C304.123,345.47 299.272,347.81 294.014,347.81C293.085,347.81 292.143,347.736 291.225,347.587L289.596,347.326L288.577,348.626L273.585,367.743L263.03,359.474L278.022,340.357L279.041,339.056L278.397,337.533C275.959,331.798 276.795,325.24 280.576,320.42C283.78,316.338 288.631,313.998 293.888,313.998C294.818,313.998 295.76,314.072 296.678,314.22L298.306,314.482L299.326,313.181L314.318,294.064L324.873,302.342L309.881,321.459L308.861,322.759L309.506,324.275ZM358.151,372.943L356.706,373.744L356.706,399.689L343.296,399.689L343.296,373.744L341.85,372.943C336.397,369.931 333.007,364.256 333.007,358.131C333.007,352.006 336.393,346.33 341.85,343.319L343.296,342.518L343.296,316.573L356.706,316.573L356.706,342.518L358.151,343.319C363.604,346.331 366.995,352.006 366.995,358.131C366.995,364.26 363.608,369.932 358.151,372.943ZM426.409,367.748L411.417,348.631L410.397,347.33L408.769,347.592C407.851,347.744 406.909,347.814 405.979,347.814C400.722,347.814 395.87,345.474 392.667,341.392C388.886,336.572 388.054,330.013 390.488,324.279L391.132,322.756L390.113,321.455L375.121,302.338L385.676,294.061L400.668,313.178L401.687,314.479L403.316,314.217C404.234,314.065 405.176,313.994 406.105,313.994C411.363,313.994 416.214,316.334 419.417,320.416C423.199,325.237 424.031,331.795 421.597,337.529L420.952,339.053L421.972,340.353L436.964,359.47L426.409,367.748ZM443.979,291.521L442.491,290.802L441.147,291.759C438.237,293.837 434.694,294.978 431.174,294.978C428.67,294.978 426.244,294.423 423.967,293.333C418.444,290.685 414.787,285.181 414.432,278.958L414.338,277.306L412.85,276.587L390.944,266.087L396.741,253.997L418.647,264.497L420.135,265.216L421.479,264.259C424.389,262.181 427.932,261.04 431.452,261.04C433.956,261.04 436.381,261.595 438.659,262.685C444.182,265.333 447.838,270.837 448.194,277.06L448.288,278.712L449.776,279.431L471.682,289.931L465.885,302.029L443.979,291.521Z" style="fill:white;fill-rule:nonzero;"/>
    </g>
</svg>
